<?xml version="1.0" encoding="utf-8" standalone="no"?>
<!DOCTYPE svg PUBLIC "-//W3C//DTD SVG 1.1//EN"
  "http://www.w3.org/Graphics/SVG/1.1/DTD/svg11.dtd">
<!-- Created with matplotlib (http://matplotlib.org/) -->
<svg height="360pt" version="1.1" viewBox="0 0 720 360" width="720pt" xmlns="http://www.w3.org/2000/svg" xmlns:xlink="http://www.w3.org/1999/xlink">
 <defs>
  <style type="text/css">
*{stroke-linecap:butt;stroke-linejoin:round;}
  </style>
 </defs>
 <g id="figure_1">
  <g id="patch_1">
   <path d="M 0 360 
L 720 360 
L 720 0 
L 0 0 
z
" style="fill:#ffffff;"/>
  </g>
  <g id="axes_1">
   <g id="patch_2">
    <path d="M 68.48 283.96 
L 695.88 283.96 
L 695.88 24.12 
L 68.48 24.12 
z
" style="fill:#ffffff;"/>
   </g>
   <g id="matplotlib.axis_1">
    <g id="xtick_1">
     <g id="line2d_1">
      <defs>
       <path d="M 0 0 
L 0 3.5 
" id="m16f15d5d57" style="stroke:#000000;stroke-width:0.8;"/>
      </defs>
      <g>
       <use style="stroke:#000000;stroke-width:0.8;" x="121.875745" xlink:href="#m16f15d5d57" y="283.96"/>
      </g>
     </g>
     <g id="text_1">
      <!-- 300 -->
      <defs>
       <path d="M 4.203125 18.890625 
L 12.984375 20.0625 
Q 14.5 12.59375 18.140625 9.296875 
Q 21.78125 6 27 6 
Q 33.203125 6 37.46875 10.296875 
Q 41.75 14.59375 41.75 20.953125 
Q 41.75 27 37.796875 30.921875 
Q 33.84375 34.859375 27.734375 34.859375 
Q 25.25 34.859375 21.53125 33.890625 
L 22.515625 41.609375 
Q 23.390625 41.5 23.921875 41.5 
Q 29.546875 41.5 34.03125 44.421875 
Q 38.53125 47.359375 38.53125 53.46875 
Q 38.53125 58.296875 35.25 61.46875 
Q 31.984375 64.65625 26.8125 64.65625 
Q 21.6875 64.65625 18.265625 61.421875 
Q 14.84375 58.203125 13.875 51.765625 
L 5.078125 53.328125 
Q 6.6875 62.15625 12.390625 67.015625 
Q 18.109375 71.875 26.609375 71.875 
Q 32.46875 71.875 37.390625 69.359375 
Q 42.328125 66.84375 44.9375 62.5 
Q 47.5625 58.15625 47.5625 53.265625 
Q 47.5625 48.640625 45.0625 44.828125 
Q 42.578125 41.015625 37.703125 38.765625 
Q 44.046875 37.3125 47.5625 32.6875 
Q 51.078125 28.078125 51.078125 21.140625 
Q 51.078125 11.765625 44.234375 5.25 
Q 37.40625 -1.265625 26.953125 -1.265625 
Q 17.53125 -1.265625 11.296875 4.34375 
Q 5.078125 9.96875 4.203125 18.890625 
" id="ArialMT-33"/>
       <path d="M 4.15625 35.296875 
Q 4.15625 48 6.765625 55.734375 
Q 9.375 63.484375 14.515625 67.671875 
Q 19.671875 71.875 27.484375 71.875 
Q 33.25 71.875 37.59375 69.546875 
Q 41.9375 67.234375 44.765625 62.859375 
Q 47.609375 58.5 49.21875 52.21875 
Q 50.828125 45.953125 50.828125 35.296875 
Q 50.828125 22.703125 48.234375 14.96875 
Q 45.65625 7.234375 40.5 3 
Q 35.359375 -1.21875 27.484375 -1.21875 
Q 17.140625 -1.21875 11.234375 6.203125 
Q 4.15625 15.140625 4.15625 35.296875 
M 13.1875 35.296875 
Q 13.1875 17.671875 17.3125 11.828125 
Q 21.4375 6 27.484375 6 
Q 33.546875 6 37.671875 11.859375 
Q 41.796875 17.71875 41.796875 35.296875 
Q 41.796875 52.984375 37.671875 58.78125 
Q 33.546875 64.59375 27.390625 64.59375 
Q 21.34375 64.59375 17.71875 59.46875 
Q 13.1875 52.9375 13.1875 35.296875 
" id="ArialMT-30"/>
      </defs>
      <g transform="translate(105.192932 305.275625)scale(0.2 -0.2)">
       <use xlink:href="#ArialMT-33"/>
       <use x="55.615234" xlink:href="#ArialMT-30"/>
       <use x="111.230469" xlink:href="#ArialMT-30"/>
      </g>
     </g>
    </g>
    <g id="xtick_2">
     <g id="line2d_2">
      <g>
       <use style="stroke:#000000;stroke-width:0.8;" x="242.01617" xlink:href="#m16f15d5d57" y="283.96"/>
      </g>
     </g>
     <g id="text_2">
      <!-- 1200 -->
      <defs>
       <path d="M 37.25 0 
L 28.46875 0 
L 28.46875 56 
Q 25.296875 52.984375 20.140625 49.953125 
Q 14.984375 46.921875 10.890625 45.40625 
L 10.890625 53.90625 
Q 18.265625 57.375 23.78125 62.296875 
Q 29.296875 67.234375 31.59375 71.875 
L 37.25 71.875 
z
" id="ArialMT-31"/>
       <path d="M 50.34375 8.453125 
L 50.34375 0 
L 3.03125 0 
Q 2.9375 3.171875 4.046875 6.109375 
Q 5.859375 10.9375 9.828125 15.625 
Q 13.8125 20.3125 21.34375 26.46875 
Q 33.015625 36.03125 37.109375 41.625 
Q 41.21875 47.21875 41.21875 52.203125 
Q 41.21875 57.421875 37.46875 61 
Q 33.734375 64.59375 27.734375 64.59375 
Q 21.390625 64.59375 17.578125 60.78125 
Q 13.765625 56.984375 13.71875 50.25 
L 4.6875 51.171875 
Q 5.609375 61.28125 11.65625 66.578125 
Q 17.71875 71.875 27.9375 71.875 
Q 38.234375 71.875 44.234375 66.15625 
Q 50.25 60.453125 50.25 52 
Q 50.25 47.703125 48.484375 43.546875 
Q 46.734375 39.40625 42.65625 34.8125 
Q 38.578125 30.21875 29.109375 22.21875 
Q 21.1875 15.578125 18.9375 13.203125 
Q 16.703125 10.84375 15.234375 8.453125 
z
" id="ArialMT-32"/>
      </defs>
      <g transform="translate(219.77242 305.275625)scale(0.2 -0.2)">
       <use xlink:href="#ArialMT-31"/>
       <use x="55.615234" xlink:href="#ArialMT-32"/>
       <use x="111.230469" xlink:href="#ArialMT-30"/>
       <use x="166.845703" xlink:href="#ArialMT-30"/>
      </g>
     </g>
    </g>
    <g id="xtick_3">
     <g id="line2d_3">
      <g>
       <use style="stroke:#000000;stroke-width:0.8;" x="375.505532" xlink:href="#m16f15d5d57" y="283.96"/>
      </g>
     </g>
     <g id="text_3">
      <!-- 2200 -->
      <g transform="translate(353.261782 305.275625)scale(0.2 -0.2)">
       <use xlink:href="#ArialMT-32"/>
       <use x="55.615234" xlink:href="#ArialMT-32"/>
       <use x="111.230469" xlink:href="#ArialMT-30"/>
       <use x="166.845703" xlink:href="#ArialMT-30"/>
      </g>
     </g>
    </g>
    <g id="xtick_4">
     <g id="line2d_4">
      <g>
       <use style="stroke:#000000;stroke-width:0.8;" x="642.484255" xlink:href="#m16f15d5d57" y="283.96"/>
      </g>
     </g>
     <g id="text_4">
      <!-- 4200 -->
      <defs>
       <path d="M 32.328125 0 
L 32.328125 17.140625 
L 1.265625 17.140625 
L 1.265625 25.203125 
L 33.9375 71.578125 
L 41.109375 71.578125 
L 41.109375 25.203125 
L 50.78125 25.203125 
L 50.78125 17.140625 
L 41.109375 17.140625 
L 41.109375 0 
z
M 32.328125 25.203125 
L 32.328125 57.46875 
L 9.90625 25.203125 
z
" id="ArialMT-34"/>
      </defs>
      <g transform="translate(620.240505 305.275625)scale(0.2 -0.2)">
       <use xlink:href="#ArialMT-34"/>
       <use x="55.615234" xlink:href="#ArialMT-32"/>
       <use x="111.230469" xlink:href="#ArialMT-30"/>
       <use x="166.845703" xlink:href="#ArialMT-30"/>
      </g>
     </g>
    </g>
    <g id="text_5">
     <!-- Video Delay (ms) -->
     <defs>
      <path d="M 28.171875 0 
L 0.4375 71.578125 
L 10.6875 71.578125 
L 29.296875 19.578125 
Q 31.546875 13.328125 33.0625 7.859375 
Q 34.71875 13.71875 36.921875 19.578125 
L 56.25 71.578125 
L 65.921875 71.578125 
L 37.890625 0 
z
" id="ArialMT-56"/>
      <path d="M 6.640625 61.46875 
L 6.640625 71.578125 
L 15.4375 71.578125 
L 15.4375 61.46875 
z
M 6.640625 0 
L 6.640625 51.859375 
L 15.4375 51.859375 
L 15.4375 0 
z
" id="ArialMT-69"/>
      <path d="M 40.234375 0 
L 40.234375 6.546875 
Q 35.296875 -1.171875 25.734375 -1.171875 
Q 19.53125 -1.171875 14.328125 2.25 
Q 9.125 5.671875 6.265625 11.796875 
Q 3.421875 17.921875 3.421875 25.875 
Q 3.421875 33.640625 6 39.96875 
Q 8.59375 46.296875 13.765625 49.65625 
Q 18.953125 53.03125 25.34375 53.03125 
Q 30.03125 53.03125 33.6875 51.046875 
Q 37.359375 49.078125 39.65625 45.90625 
L 39.65625 71.578125 
L 48.390625 71.578125 
L 48.390625 0 
z
M 12.453125 25.875 
Q 12.453125 15.921875 16.640625 10.984375 
Q 20.84375 6.0625 26.5625 6.0625 
Q 32.328125 6.0625 36.34375 10.765625 
Q 40.375 15.484375 40.375 25.140625 
Q 40.375 35.796875 36.265625 40.765625 
Q 32.171875 45.75 26.171875 45.75 
Q 20.3125 45.75 16.375 40.96875 
Q 12.453125 36.1875 12.453125 25.875 
" id="ArialMT-64"/>
      <path d="M 42.09375 16.703125 
L 51.171875 15.578125 
Q 49.03125 7.625 43.21875 3.21875 
Q 37.40625 -1.171875 28.375 -1.171875 
Q 17 -1.171875 10.328125 5.828125 
Q 3.65625 12.84375 3.65625 25.484375 
Q 3.65625 38.578125 10.390625 45.796875 
Q 17.140625 53.03125 27.875 53.03125 
Q 38.28125 53.03125 44.875 45.953125 
Q 51.46875 38.875 51.46875 26.03125 
Q 51.46875 25.25 51.421875 23.6875 
L 12.75 23.6875 
Q 13.234375 15.140625 17.578125 10.59375 
Q 21.921875 6.0625 28.421875 6.0625 
Q 33.25 6.0625 36.671875 8.59375 
Q 40.09375 11.140625 42.09375 16.703125 
M 13.234375 30.90625 
L 42.1875 30.90625 
Q 41.609375 37.453125 38.875 40.71875 
Q 34.671875 45.796875 27.984375 45.796875 
Q 21.921875 45.796875 17.796875 41.75 
Q 13.671875 37.703125 13.234375 30.90625 
" id="ArialMT-65"/>
      <path d="M 3.328125 25.921875 
Q 3.328125 40.328125 11.328125 47.265625 
Q 18.015625 53.03125 27.640625 53.03125 
Q 38.328125 53.03125 45.109375 46.015625 
Q 51.90625 39.015625 51.90625 26.65625 
Q 51.90625 16.65625 48.90625 10.90625 
Q 45.90625 5.171875 40.15625 2 
Q 34.421875 -1.171875 27.640625 -1.171875 
Q 16.75 -1.171875 10.03125 5.8125 
Q 3.328125 12.796875 3.328125 25.921875 
M 12.359375 25.921875 
Q 12.359375 15.96875 16.703125 11.015625 
Q 21.046875 6.0625 27.640625 6.0625 
Q 34.1875 6.0625 38.53125 11.03125 
Q 42.875 16.015625 42.875 26.21875 
Q 42.875 35.84375 38.5 40.796875 
Q 34.125 45.75 27.640625 45.75 
Q 21.046875 45.75 16.703125 40.8125 
Q 12.359375 35.890625 12.359375 25.921875 
" id="ArialMT-6f"/>
      <path id="ArialMT-20"/>
      <path d="M 7.71875 0 
L 7.71875 71.578125 
L 32.375 71.578125 
Q 40.71875 71.578125 45.125 70.5625 
Q 51.265625 69.140625 55.609375 65.4375 
Q 61.28125 60.640625 64.078125 53.1875 
Q 66.890625 45.75 66.890625 36.1875 
Q 66.890625 28.03125 64.984375 21.734375 
Q 63.09375 15.4375 60.109375 11.296875 
Q 57.125 7.171875 53.578125 4.796875 
Q 50.046875 2.4375 45.046875 1.21875 
Q 40.046875 0 33.546875 0 
z
M 17.1875 8.453125 
L 32.46875 8.453125 
Q 39.546875 8.453125 43.578125 9.765625 
Q 47.609375 11.078125 50 13.484375 
Q 53.375 16.84375 55.25 22.53125 
Q 57.125 28.21875 57.125 36.328125 
Q 57.125 47.5625 53.4375 53.59375 
Q 49.75 59.625 44.484375 61.671875 
Q 40.671875 63.140625 32.234375 63.140625 
L 17.1875 63.140625 
z
" id="ArialMT-44"/>
      <path d="M 6.390625 0 
L 6.390625 71.578125 
L 15.1875 71.578125 
L 15.1875 0 
z
" id="ArialMT-6c"/>
      <path d="M 40.4375 6.390625 
Q 35.546875 2.25 31.03125 0.53125 
Q 26.515625 -1.171875 21.34375 -1.171875 
Q 12.796875 -1.171875 8.203125 3 
Q 3.609375 7.171875 3.609375 13.671875 
Q 3.609375 17.484375 5.34375 20.625 
Q 7.078125 23.78125 9.890625 25.6875 
Q 12.703125 27.59375 16.21875 28.5625 
Q 18.796875 29.25 24.03125 29.890625 
Q 34.671875 31.15625 39.703125 32.90625 
Q 39.75 34.71875 39.75 35.203125 
Q 39.75 40.578125 37.25 42.78125 
Q 33.890625 45.75 27.25 45.75 
Q 21.046875 45.75 18.09375 43.578125 
Q 15.140625 41.40625 13.71875 35.890625 
L 5.125 37.0625 
Q 6.296875 42.578125 8.984375 45.96875 
Q 11.671875 49.359375 16.75 51.1875 
Q 21.828125 53.03125 28.515625 53.03125 
Q 35.15625 53.03125 39.296875 51.46875 
Q 43.453125 49.90625 45.40625 47.53125 
Q 47.359375 45.171875 48.140625 41.546875 
Q 48.578125 39.3125 48.578125 33.453125 
L 48.578125 21.734375 
Q 48.578125 9.46875 49.140625 6.21875 
Q 49.703125 2.984375 51.375 0 
L 42.1875 0 
Q 40.828125 2.734375 40.4375 6.390625 
M 39.703125 26.03125 
Q 34.90625 24.078125 25.34375 22.703125 
Q 19.921875 21.921875 17.671875 20.9375 
Q 15.4375 19.96875 14.203125 18.09375 
Q 12.984375 16.21875 12.984375 13.921875 
Q 12.984375 10.40625 15.640625 8.0625 
Q 18.3125 5.71875 23.4375 5.71875 
Q 28.515625 5.71875 32.46875 7.9375 
Q 36.421875 10.15625 38.28125 14.015625 
Q 39.703125 17 39.703125 22.796875 
z
" id="ArialMT-61"/>
      <path d="M 6.203125 -19.96875 
L 5.21875 -11.71875 
Q 8.109375 -12.5 10.25 -12.5 
Q 13.1875 -12.5 14.9375 -11.515625 
Q 16.703125 -10.546875 17.828125 -8.796875 
Q 18.65625 -7.46875 20.515625 -2.25 
Q 20.75 -1.515625 21.296875 -0.09375 
L 1.609375 51.859375 
L 11.078125 51.859375 
L 21.875 21.828125 
Q 23.96875 16.109375 25.640625 9.8125 
Q 27.15625 15.875 29.25 21.625 
L 40.328125 51.859375 
L 49.125 51.859375 
L 29.390625 -0.875 
Q 26.21875 -9.421875 24.46875 -12.640625 
Q 22.125 -17 19.09375 -19.015625 
Q 16.0625 -21.046875 11.859375 -21.046875 
Q 9.328125 -21.046875 6.203125 -19.96875 
" id="ArialMT-79"/>
      <path d="M 23.390625 -21.046875 
Q 16.109375 -11.859375 11.078125 0.4375 
Q 6.0625 12.75 6.0625 25.921875 
Q 6.0625 37.546875 9.8125 48.1875 
Q 14.203125 60.546875 23.390625 72.796875 
L 29.6875 72.796875 
Q 23.78125 62.640625 21.875 58.296875 
Q 18.890625 51.5625 17.1875 44.234375 
Q 15.09375 35.109375 15.09375 25.875 
Q 15.09375 2.390625 29.6875 -21.046875 
z
" id="ArialMT-28"/>
      <path d="M 6.59375 0 
L 6.59375 51.859375 
L 14.453125 51.859375 
L 14.453125 44.578125 
Q 16.890625 48.390625 20.9375 50.703125 
Q 25 53.03125 30.171875 53.03125 
Q 35.9375 53.03125 39.625 50.640625 
Q 43.3125 48.25 44.828125 43.953125 
Q 50.984375 53.03125 60.84375 53.03125 
Q 68.5625 53.03125 72.703125 48.75 
Q 76.859375 44.484375 76.859375 35.59375 
L 76.859375 0 
L 68.109375 0 
L 68.109375 32.671875 
Q 68.109375 37.9375 67.25 40.25 
Q 66.40625 42.578125 64.15625 43.984375 
Q 61.921875 45.40625 58.890625 45.40625 
Q 53.421875 45.40625 49.796875 41.765625 
Q 46.1875 38.140625 46.1875 30.125 
L 46.1875 0 
L 37.40625 0 
L 37.40625 33.6875 
Q 37.40625 39.546875 35.25 42.46875 
Q 33.109375 45.40625 28.21875 45.40625 
Q 24.515625 45.40625 21.359375 43.453125 
Q 18.21875 41.5 16.796875 37.734375 
Q 15.375 33.984375 15.375 26.90625 
L 15.375 0 
z
" id="ArialMT-6d"/>
      <path d="M 3.078125 15.484375 
L 11.765625 16.84375 
Q 12.5 11.625 15.84375 8.84375 
Q 19.1875 6.0625 25.203125 6.0625 
Q 31.25 6.0625 34.171875 8.515625 
Q 37.109375 10.984375 37.109375 14.3125 
Q 37.109375 17.28125 34.515625 19 
Q 32.71875 20.171875 25.53125 21.96875 
Q 15.875 24.421875 12.140625 26.203125 
Q 8.40625 27.984375 6.46875 31.125 
Q 4.546875 34.28125 4.546875 38.09375 
Q 4.546875 41.546875 6.125 44.5 
Q 7.71875 47.46875 10.453125 49.421875 
Q 12.5 50.921875 16.03125 51.96875 
Q 19.578125 53.03125 23.640625 53.03125 
Q 29.734375 53.03125 34.34375 51.265625 
Q 38.96875 49.515625 41.15625 46.5 
Q 43.359375 43.5 44.1875 38.484375 
L 35.59375 37.3125 
Q 35.015625 41.3125 32.203125 43.546875 
Q 29.390625 45.796875 24.265625 45.796875 
Q 18.21875 45.796875 15.625 43.796875 
Q 13.03125 41.796875 13.03125 39.109375 
Q 13.03125 37.40625 14.109375 36.03125 
Q 15.1875 34.625 17.484375 33.6875 
Q 18.796875 33.203125 25.25 31.453125 
Q 34.578125 28.953125 38.25 27.359375 
Q 41.9375 25.78125 44.03125 22.75 
Q 46.140625 19.734375 46.140625 15.234375 
Q 46.140625 10.84375 43.578125 6.953125 
Q 41.015625 3.078125 36.171875 0.953125 
Q 31.34375 -1.171875 25.25 -1.171875 
Q 15.140625 -1.171875 9.84375 3.03125 
Q 4.546875 7.234375 3.078125 15.484375 
" id="ArialMT-73"/>
      <path d="M 12.359375 -21.046875 
L 6.0625 -21.046875 
Q 20.65625 2.390625 20.65625 25.875 
Q 20.65625 35.0625 18.5625 44.09375 
Q 16.890625 51.421875 13.921875 58.15625 
Q 12.015625 62.546875 6.0625 72.796875 
L 12.359375 72.796875 
Q 21.53125 60.546875 25.921875 48.1875 
Q 29.6875 37.546875 29.6875 25.921875 
Q 29.6875 12.75 24.625 0.4375 
Q 19.578125 -11.859375 12.359375 -21.046875 
" id="ArialMT-29"/>
     </defs>
     <g transform="translate(305.495625 333.81)scale(0.2 -0.2)">
      <use xlink:href="#ArialMT-56"/>
      <use x="66.683594" xlink:href="#ArialMT-69"/>
      <use x="88.900391" xlink:href="#ArialMT-64"/>
      <use x="144.515625" xlink:href="#ArialMT-65"/>
      <use x="200.130859" xlink:href="#ArialMT-6f"/>
      <use x="255.746094" xlink:href="#ArialMT-20"/>
      <use x="283.529297" xlink:href="#ArialMT-44"/>
      <use x="355.746094" xlink:href="#ArialMT-65"/>
      <use x="411.361328" xlink:href="#ArialMT-6c"/>
      <use x="433.578125" xlink:href="#ArialMT-61"/>
      <use x="489.193359" xlink:href="#ArialMT-79"/>
      <use x="539.193359" xlink:href="#ArialMT-20"/>
      <use x="566.976562" xlink:href="#ArialMT-28"/>
      <use x="600.277344" xlink:href="#ArialMT-6d"/>
      <use x="683.578125" xlink:href="#ArialMT-73"/>
      <use x="733.578125" xlink:href="#ArialMT-29"/>
     </g>
    </g>
   </g>
   <g id="matplotlib.axis_2">
    <g id="ytick_1">
     <g id="line2d_5">
      <defs>
       <path d="M 0 0 
L -3.5 0 
" id="m3a7306d7da" style="stroke:#000000;stroke-width:0.8;"/>
      </defs>
      <g>
       <use style="stroke:#000000;stroke-width:0.8;" x="68.48" xlink:href="#m3a7306d7da" y="258.732816"/>
      </g>
     </g>
     <g id="text_6">
      <!-- 1 -->
      <g transform="translate(50.358125 265.890628)scale(0.2 -0.2)">
       <use xlink:href="#ArialMT-31"/>
      </g>
     </g>
    </g>
    <g id="ytick_2">
     <g id="line2d_6">
      <g>
       <use style="stroke:#000000;stroke-width:0.8;" x="68.48" xlink:href="#m3a7306d7da" y="208.278447"/>
      </g>
     </g>
     <g id="text_7">
      <!-- 2 -->
      <g transform="translate(50.358125 215.436259)scale(0.2 -0.2)">
       <use xlink:href="#ArialMT-32"/>
      </g>
     </g>
    </g>
    <g id="ytick_3">
     <g id="line2d_7">
      <g>
       <use style="stroke:#000000;stroke-width:0.8;" x="68.48" xlink:href="#m3a7306d7da" y="157.824078"/>
      </g>
     </g>
     <g id="text_8">
      <!-- 3 -->
      <g transform="translate(50.358125 164.98189)scale(0.2 -0.2)">
       <use xlink:href="#ArialMT-33"/>
      </g>
     </g>
    </g>
    <g id="ytick_4">
     <g id="line2d_8">
      <g>
       <use style="stroke:#000000;stroke-width:0.8;" x="68.48" xlink:href="#m3a7306d7da" y="107.369709"/>
      </g>
     </g>
     <g id="text_9">
      <!-- 4 -->
      <g transform="translate(50.358125 114.527521)scale(0.2 -0.2)">
       <use xlink:href="#ArialMT-34"/>
      </g>
     </g>
    </g>
    <g id="ytick_5">
     <g id="line2d_9">
      <g>
       <use style="stroke:#000000;stroke-width:0.8;" x="68.48" xlink:href="#m3a7306d7da" y="56.91534"/>
      </g>
     </g>
     <g id="text_10">
      <!-- 5 -->
      <defs>
       <path d="M 4.15625 18.75 
L 13.375 19.53125 
Q 14.40625 12.796875 18.140625 9.390625 
Q 21.875 6 27.15625 6 
Q 33.5 6 37.890625 10.78125 
Q 42.28125 15.578125 42.28125 23.484375 
Q 42.28125 31 38.0625 35.34375 
Q 33.84375 39.703125 27 39.703125 
Q 22.75 39.703125 19.328125 37.765625 
Q 15.921875 35.84375 13.96875 32.765625 
L 5.71875 33.84375 
L 12.640625 70.609375 
L 48.25 70.609375 
L 48.25 62.203125 
L 19.671875 62.203125 
L 15.828125 42.96875 
Q 22.265625 47.46875 29.34375 47.46875 
Q 38.71875 47.46875 45.15625 40.96875 
Q 51.609375 34.46875 51.609375 24.265625 
Q 51.609375 14.546875 45.953125 7.46875 
Q 39.0625 -1.21875 27.15625 -1.21875 
Q 17.390625 -1.21875 11.203125 4.25 
Q 5.03125 9.71875 4.15625 18.75 
" id="ArialMT-35"/>
      </defs>
      <g transform="translate(50.358125 64.073152)scale(0.2 -0.2)">
       <use xlink:href="#ArialMT-35"/>
      </g>
     </g>
    </g>
    <g id="text_11">
     <!-- QoE Score -->
     <defs>
      <path d="M 61.96875 7.671875 
Q 68.5625 3.125 74.125 1.03125 
L 71.34375 -5.5625 
Q 63.625 -2.78125 55.953125 3.21875 
Q 48 -1.21875 38.375 -1.21875 
Q 28.65625 -1.21875 20.75 3.46875 
Q 12.84375 8.15625 8.5625 16.640625 
Q 4.296875 25.140625 4.296875 35.796875 
Q 4.296875 46.390625 8.59375 55.078125 
Q 12.890625 63.765625 20.828125 68.3125 
Q 28.765625 72.859375 38.578125 72.859375 
Q 48.484375 72.859375 56.4375 68.140625 
Q 64.40625 63.421875 68.578125 54.953125 
Q 72.75 46.484375 72.75 35.84375 
Q 72.75 27 70.0625 19.9375 
Q 67.390625 12.890625 61.96875 7.671875 
M 41.109375 19.78125 
Q 49.3125 17.484375 54.640625 12.9375 
Q 62.984375 20.5625 62.984375 35.84375 
Q 62.984375 44.53125 60.03125 51.015625 
Q 57.078125 57.515625 51.390625 61.109375 
Q 45.703125 64.703125 38.625 64.703125 
Q 28.03125 64.703125 21.046875 57.453125 
Q 14.0625 50.203125 14.0625 35.796875 
Q 14.0625 21.828125 20.96875 14.359375 
Q 27.875 6.890625 38.625 6.890625 
Q 43.703125 6.890625 48.1875 8.796875 
Q 43.75 11.671875 38.8125 12.890625 
z
" id="ArialMT-51"/>
      <path d="M 7.90625 0 
L 7.90625 71.578125 
L 59.671875 71.578125 
L 59.671875 63.140625 
L 17.390625 63.140625 
L 17.390625 41.21875 
L 56.984375 41.21875 
L 56.984375 32.8125 
L 17.390625 32.8125 
L 17.390625 8.453125 
L 61.328125 8.453125 
L 61.328125 0 
z
" id="ArialMT-45"/>
      <path d="M 4.5 23 
L 13.421875 23.78125 
Q 14.0625 18.40625 16.375 14.96875 
Q 18.703125 11.53125 23.578125 9.40625 
Q 28.46875 7.28125 34.578125 7.28125 
Q 39.984375 7.28125 44.140625 8.890625 
Q 48.296875 10.5 50.3125 13.296875 
Q 52.34375 16.109375 52.34375 19.4375 
Q 52.34375 22.796875 50.390625 25.3125 
Q 48.4375 27.828125 43.953125 29.546875 
Q 41.0625 30.671875 31.203125 33.03125 
Q 21.34375 35.40625 17.390625 37.5 
Q 12.25 40.1875 9.734375 44.15625 
Q 7.234375 48.140625 7.234375 53.078125 
Q 7.234375 58.5 10.296875 63.203125 
Q 13.375 67.921875 19.28125 70.359375 
Q 25.203125 72.796875 32.421875 72.796875 
Q 40.375 72.796875 46.453125 70.234375 
Q 52.546875 67.671875 55.8125 62.6875 
Q 59.078125 57.71875 59.328125 51.421875 
L 50.25 50.734375 
Q 49.515625 57.515625 45.28125 60.984375 
Q 41.0625 64.453125 32.8125 64.453125 
Q 24.21875 64.453125 20.28125 61.296875 
Q 16.359375 58.15625 16.359375 53.71875 
Q 16.359375 49.859375 19.140625 47.359375 
Q 21.875 44.875 33.421875 42.265625 
Q 44.96875 39.65625 49.265625 37.703125 
Q 55.515625 34.8125 58.484375 30.390625 
Q 61.46875 25.984375 61.46875 20.21875 
Q 61.46875 14.5 58.203125 9.4375 
Q 54.9375 4.390625 48.796875 1.578125 
Q 42.671875 -1.21875 35.015625 -1.21875 
Q 25.296875 -1.21875 18.71875 1.609375 
Q 12.15625 4.4375 8.421875 10.125 
Q 4.6875 15.828125 4.5 23 
" id="ArialMT-53"/>
      <path d="M 40.4375 19 
L 49.078125 17.875 
Q 47.65625 8.9375 41.8125 3.875 
Q 35.984375 -1.171875 27.484375 -1.171875 
Q 16.84375 -1.171875 10.375 5.78125 
Q 3.90625 12.75 3.90625 25.734375 
Q 3.90625 34.125 6.6875 40.421875 
Q 9.46875 46.734375 15.15625 49.875 
Q 20.84375 53.03125 27.546875 53.03125 
Q 35.984375 53.03125 41.359375 48.75 
Q 46.734375 44.484375 48.25 36.625 
L 39.703125 35.296875 
Q 38.484375 40.53125 35.375 43.15625 
Q 32.28125 45.796875 27.875 45.796875 
Q 21.234375 45.796875 17.078125 41.03125 
Q 12.9375 36.28125 12.9375 25.984375 
Q 12.9375 15.53125 16.9375 10.796875 
Q 20.953125 6.0625 27.390625 6.0625 
Q 32.5625 6.0625 36.03125 9.234375 
Q 39.5 12.40625 40.4375 19 
" id="ArialMT-63"/>
      <path d="M 6.5 0 
L 6.5 51.859375 
L 14.40625 51.859375 
L 14.40625 44 
Q 17.4375 49.515625 20 51.265625 
Q 22.5625 53.03125 25.640625 53.03125 
Q 30.078125 53.03125 34.671875 50.203125 
L 31.640625 42.046875 
Q 28.421875 43.953125 25.203125 43.953125 
Q 22.3125 43.953125 20.015625 42.21875 
Q 17.71875 40.484375 16.75 37.40625 
Q 15.28125 32.71875 15.28125 27.15625 
L 15.28125 0 
z
" id="ArialMT-72"/>
     </defs>
     <g transform="translate(36.383125 202.949375)rotate(-90)scale(0.2 -0.2)">
      <use xlink:href="#ArialMT-51"/>
      <use x="77.783203" xlink:href="#ArialMT-6f"/>
      <use x="133.398438" xlink:href="#ArialMT-45"/>
      <use x="200.097656" xlink:href="#ArialMT-20"/>
      <use x="227.880859" xlink:href="#ArialMT-53"/>
      <use x="294.580078" xlink:href="#ArialMT-63"/>
      <use x="344.580078" xlink:href="#ArialMT-6f"/>
      <use x="400.195312" xlink:href="#ArialMT-72"/>
      <use x="433.496094" xlink:href="#ArialMT-65"/>
     </g>
    </g>
   </g>
   <g id="LineCollection_1">
    <path clip-path="url(#pd3a6810335)" d="M 107.325404 148.565528 
L 107.325404 66.173889 
" style="fill:none;stroke:#4c72b0;stroke-width:3;"/>
   </g>
   <g id="LineCollection_2">
    <path clip-path="url(#pd3a6810335)" d="M 124.011574 124.480519 
L 124.011574 71.33851 
" style="fill:none;stroke:#55a868;stroke-width:3;"/>
   </g>
   <g id="LineCollection_3">
    <path clip-path="url(#pd3a6810335)" d="M 140.697745 100.261844 
L 140.697745 51.409612 
" style="fill:none;stroke:#c44e52;stroke-width:3;"/>
   </g>
   <g id="LineCollection_4">
    <path clip-path="url(#pd3a6810335)" d="M 230.669574 188.357476 
L 230.669574 136.464201 
" style="fill:none;stroke:#4c72b0;stroke-width:3;"/>
   </g>
   <g id="LineCollection_5">
    <path clip-path="url(#pd3a6810335)" d="M 247.355745 197.80264 
L 247.355745 101.569912 
" style="fill:none;stroke:#55a868;stroke-width:3;"/>
   </g>
   <g id="LineCollection_6">
    <path clip-path="url(#pd3a6810335)" d="M 264.041915 178.612421 
L 264.041915 103.399488 
" style="fill:none;stroke:#c44e52;stroke-width:3;"/>
   </g>
   <g id="LineCollection_7">
    <path clip-path="url(#pd3a6810335)" d="M 362.824043 208.759853 
L 362.824043 145.699356 
" style="fill:none;stroke:#4c72b0;stroke-width:3;"/>
   </g>
   <g id="LineCollection_8">
    <path clip-path="url(#pd3a6810335)" d="M 379.510213 238.578631 
L 379.510213 135.932955 
" style="fill:none;stroke:#55a868;stroke-width:3;"/>
   </g>
   <g id="LineCollection_9">
    <path clip-path="url(#pd3a6810335)" d="M 396.196383 209.160088 
L 396.196383 118.359684 
" style="fill:none;stroke:#c44e52;stroke-width:3;"/>
   </g>
   <g id="LineCollection_10">
    <path clip-path="url(#pd3a6810335)" d="M 627.132979 270.183964 
L 627.132979 167.99623 
" style="fill:none;stroke:#4c72b0;stroke-width:3;"/>
   </g>
   <g id="LineCollection_11">
    <path clip-path="url(#pd3a6810335)" d="M 643.819149 266.252048 
L 643.819149 194.031965 
" style="fill:none;stroke:#55a868;stroke-width:3;"/>
   </g>
   <g id="LineCollection_12">
    <path clip-path="url(#pd3a6810335)" d="M 660.505319 253.458376 
L 660.505319 194.632498 
" style="fill:none;stroke:#c44e52;stroke-width:3;"/>
   </g>
   <g id="LineCollection_13">
    <path clip-path="url(#pd3a6810335)" d="M 81.828936 309.187184 
L 81.828936 309.187184 
" style="fill:none;stroke:#000000;stroke-width:3;"/>
   </g>
   <g id="line2d_10">
    <defs>
     <path d="M 6 0 
L -6 -0 
" id="md3f964cd49" style="stroke:#4c72b0;stroke-width:2;"/>
    </defs>
    <g clip-path="url(#pd3a6810335)">
     <use style="fill:#4c72b0;stroke:#4c72b0;stroke-width:2;" x="107.325404" xlink:href="#md3f964cd49" y="148.565528"/>
    </g>
   </g>
   <g id="line2d_11">
    <g clip-path="url(#pd3a6810335)">
     <use style="fill:#4c72b0;stroke:#4c72b0;stroke-width:2;" x="107.325404" xlink:href="#md3f964cd49" y="66.173889"/>
    </g>
   </g>
   <g id="line2d_12">
    <defs>
     <path d="M 6 0 
L -6 -0 
" id="mc8386af811" style="stroke:#55a868;stroke-width:2;"/>
    </defs>
    <g clip-path="url(#pd3a6810335)">
     <use style="fill:#55a868;stroke:#55a868;stroke-width:2;" x="124.011574" xlink:href="#mc8386af811" y="124.480519"/>
    </g>
   </g>
   <g id="line2d_13">
    <g clip-path="url(#pd3a6810335)">
     <use style="fill:#55a868;stroke:#55a868;stroke-width:2;" x="124.011574" xlink:href="#mc8386af811" y="71.33851"/>
    </g>
   </g>
   <g id="line2d_14">
    <defs>
     <path d="M 6 0 
L -6 -0 
" id="mbc2b3e4600" style="stroke:#c44e52;stroke-width:2;"/>
    </defs>
    <g clip-path="url(#pd3a6810335)">
     <use style="fill:#c44e52;stroke:#c44e52;stroke-width:2;" x="140.697745" xlink:href="#mbc2b3e4600" y="100.261844"/>
    </g>
   </g>
   <g id="line2d_15">
    <g clip-path="url(#pd3a6810335)">
     <use style="fill:#c44e52;stroke:#c44e52;stroke-width:2;" x="140.697745" xlink:href="#mbc2b3e4600" y="51.409612"/>
    </g>
   </g>
   <g id="line2d_16">
    <g clip-path="url(#pd3a6810335)">
     <use style="fill:#4c72b0;stroke:#4c72b0;stroke-width:2;" x="230.669574" xlink:href="#md3f964cd49" y="188.357476"/>
    </g>
   </g>
   <g id="line2d_17">
    <g clip-path="url(#pd3a6810335)">
     <use style="fill:#4c72b0;stroke:#4c72b0;stroke-width:2;" x="230.669574" xlink:href="#md3f964cd49" y="136.464201"/>
    </g>
   </g>
   <g id="line2d_18">
    <g clip-path="url(#pd3a6810335)">
     <use style="fill:#55a868;stroke:#55a868;stroke-width:2;" x="247.355745" xlink:href="#mc8386af811" y="197.80264"/>
    </g>
   </g>
   <g id="line2d_19">
    <g clip-path="url(#pd3a6810335)">
     <use style="fill:#55a868;stroke:#55a868;stroke-width:2;" x="247.355745" xlink:href="#mc8386af811" y="101.569912"/>
    </g>
   </g>
   <g id="line2d_20">
    <g clip-path="url(#pd3a6810335)">
     <use style="fill:#c44e52;stroke:#c44e52;stroke-width:2;" x="264.041915" xlink:href="#mbc2b3e4600" y="178.612421"/>
    </g>
   </g>
   <g id="line2d_21">
    <g clip-path="url(#pd3a6810335)">
     <use style="fill:#c44e52;stroke:#c44e52;stroke-width:2;" x="264.041915" xlink:href="#mbc2b3e4600" y="103.399488"/>
    </g>
   </g>
   <g id="line2d_22">
    <g clip-path="url(#pd3a6810335)">
     <use style="fill:#4c72b0;stroke:#4c72b0;stroke-width:2;" x="362.824043" xlink:href="#md3f964cd49" y="208.759853"/>
    </g>
   </g>
   <g id="line2d_23">
    <g clip-path="url(#pd3a6810335)">
     <use style="fill:#4c72b0;stroke:#4c72b0;stroke-width:2;" x="362.824043" xlink:href="#md3f964cd49" y="145.699356"/>
    </g>
   </g>
   <g id="line2d_24">
    <g clip-path="url(#pd3a6810335)">
     <use style="fill:#55a868;stroke:#55a868;stroke-width:2;" x="379.510213" xlink:href="#mc8386af811" y="238.578631"/>
    </g>
   </g>
   <g id="line2d_25">
    <g clip-path="url(#pd3a6810335)">
     <use style="fill:#55a868;stroke:#55a868;stroke-width:2;" x="379.510213" xlink:href="#mc8386af811" y="135.932955"/>
    </g>
   </g>
   <g id="line2d_26">
    <g clip-path="url(#pd3a6810335)">
     <use style="fill:#c44e52;stroke:#c44e52;stroke-width:2;" x="396.196383" xlink:href="#mbc2b3e4600" y="209.160088"/>
    </g>
   </g>
   <g id="line2d_27">
    <g clip-path="url(#pd3a6810335)">
     <use style="fill:#c44e52;stroke:#c44e52;stroke-width:2;" x="396.196383" xlink:href="#mbc2b3e4600" y="118.359684"/>
    </g>
   </g>
   <g id="line2d_28">
    <g clip-path="url(#pd3a6810335)">
     <use style="fill:#4c72b0;stroke:#4c72b0;stroke-width:2;" x="627.132979" xlink:href="#md3f964cd49" y="270.183964"/>
    </g>
   </g>
   <g id="line2d_29">
    <g clip-path="url(#pd3a6810335)">
     <use style="fill:#4c72b0;stroke:#4c72b0;stroke-width:2;" x="627.132979" xlink:href="#md3f964cd49" y="167.99623"/>
    </g>
   </g>
   <g id="line2d_30">
    <g clip-path="url(#pd3a6810335)">
     <use style="fill:#55a868;stroke:#55a868;stroke-width:2;" x="643.819149" xlink:href="#mc8386af811" y="266.252048"/>
    </g>
   </g>
   <g id="line2d_31">
    <g clip-path="url(#pd3a6810335)">
     <use style="fill:#55a868;stroke:#55a868;stroke-width:2;" x="643.819149" xlink:href="#mc8386af811" y="194.031965"/>
    </g>
   </g>
   <g id="line2d_32">
    <g clip-path="url(#pd3a6810335)">
     <use style="fill:#c44e52;stroke:#c44e52;stroke-width:2;" x="660.505319" xlink:href="#mbc2b3e4600" y="253.458376"/>
    </g>
   </g>
   <g id="line2d_33">
    <g clip-path="url(#pd3a6810335)">
     <use style="fill:#c44e52;stroke:#c44e52;stroke-width:2;" x="660.505319" xlink:href="#mbc2b3e4600" y="194.632498"/>
    </g>
   </g>
   <g id="line2d_34">
    <path clip-path="url(#pd3a6810335)" d="M 81.828936 111.431915 
L 682.531064 256.524784 
" style="fill:none;stroke:#4c72b0;stroke-linecap:square;stroke-width:2;"/>
   </g>
   <g id="line2d_35">
    <path clip-path="url(#pd3a6810335)" d="M 81.828936 98.863667 
L 682.531064 243.956536 
" style="fill:none;stroke:#55a868;stroke-linecap:square;stroke-width:2;"/>
   </g>
   <g id="line2d_36">
    <path clip-path="url(#pd3a6810335)" d="M 81.828936 86.29542 
L 682.531064 231.388289 
" style="fill:none;stroke:#c44e52;stroke-linecap:square;stroke-width:2;"/>
   </g>
   <g id="line2d_37">
    <path clip-path="url(#pd3a6810335)" d="M 81.828936 309.187184 
L 81.828936 309.187184 
" style="fill:none;stroke:#000000;stroke-linecap:square;stroke-width:1.5;"/>
   </g>
   <g id="line2d_38">
    <defs>
     <path d="M 6 0 
L -6 -0 
" id="m208c6b7a14" style="stroke:#000000;stroke-width:2;"/>
    </defs>
    <g clip-path="url(#pd3a6810335)">
     <use style="stroke:#000000;stroke-width:2;" x="81.828936" xlink:href="#m208c6b7a14" y="309.187184"/>
    </g>
   </g>
   <g id="line2d_39">
    <g clip-path="url(#pd3a6810335)">
     <use style="stroke:#000000;stroke-width:2;" x="81.828936" xlink:href="#m208c6b7a14" y="309.187184"/>
    </g>
   </g>
   <g id="line2d_40">
    <path clip-path="url(#pd3a6810335)" d="M 95.845319 157.824078 
L 161.255106 157.824078 
" style="fill:none;stroke:#545454;stroke-linecap:square;stroke-width:2;"/>
   </g>
   <g id="line2d_41">
    <path clip-path="url(#pd3a6810335)" d="M 95.845319 157.824078 
L 95.845319 152.778641 
" style="fill:none;stroke:#545454;stroke-linecap:square;stroke-width:2;"/>
   </g>
   <g id="line2d_42">
    <path clip-path="url(#pd3a6810335)" d="M 161.255106 157.824078 
L 161.255106 152.778641 
" style="fill:none;stroke:#545454;stroke-linecap:square;stroke-width:2;"/>
   </g>
   <g id="line2d_43">
    <defs>
     <path d="M -3 3 
L 3 3 
L 3 -3 
L -3 -3 
z
" id="m658c3074fa" style="stroke:#4c72b0;stroke-linejoin:miter;"/>
    </defs>
    <g clip-path="url(#pd3a6810335)">
     <use style="fill:#4c72b0;stroke:#4c72b0;stroke-linejoin:miter;" x="107.325404" xlink:href="#m658c3074fa" y="107.369709"/>
    </g>
   </g>
   <g id="line2d_44">
    <defs>
     <path d="M -3 3 
L 3 3 
L 3 -3 
L -3 -3 
z
" id="mf8c0823221" style="stroke:#55a868;stroke-linejoin:miter;"/>
    </defs>
    <g clip-path="url(#pd3a6810335)">
     <use style="fill:#55a868;stroke:#55a868;stroke-linejoin:miter;" x="124.011574" xlink:href="#mf8c0823221" y="97.909515"/>
    </g>
   </g>
   <g id="line2d_45">
    <defs>
     <path d="M -3 3 
L 3 3 
L 3 -3 
L -3 -3 
z
" id="m0400aa79dd" style="stroke:#c44e52;stroke-linejoin:miter;"/>
    </defs>
    <g clip-path="url(#pd3a6810335)">
     <use style="fill:#c44e52;stroke:#c44e52;stroke-linejoin:miter;" x="140.697745" xlink:href="#m0400aa79dd" y="75.835728"/>
    </g>
   </g>
   <g id="line2d_46">
    <g clip-path="url(#pd3a6810335)">
     <use style="fill:#4c72b0;stroke:#4c72b0;stroke-linejoin:miter;" x="230.669574" xlink:href="#m658c3074fa" y="162.410838"/>
    </g>
   </g>
   <g id="line2d_47">
    <g clip-path="url(#pd3a6810335)">
     <use style="fill:#55a868;stroke:#55a868;stroke-linejoin:miter;" x="247.355745" xlink:href="#mf8c0823221" y="149.686276"/>
    </g>
   </g>
   <g id="line2d_48">
    <g clip-path="url(#pd3a6810335)">
     <use style="fill:#c44e52;stroke:#c44e52;stroke-linejoin:miter;" x="264.041915" xlink:href="#m0400aa79dd" y="141.005955"/>
    </g>
   </g>
   <g id="line2d_49">
    <g clip-path="url(#pd3a6810335)">
     <use style="fill:#4c72b0;stroke:#4c72b0;stroke-linejoin:miter;" x="362.824043" xlink:href="#m658c3074fa" y="177.229604"/>
    </g>
   </g>
   <g id="line2d_50">
    <g clip-path="url(#pd3a6810335)">
     <use style="fill:#55a868;stroke:#55a868;stroke-linejoin:miter;" x="379.510213" xlink:href="#mf8c0823221" y="187.255793"/>
    </g>
   </g>
   <g id="line2d_51">
    <g clip-path="url(#pd3a6810335)">
     <use style="fill:#c44e52;stroke:#c44e52;stroke-linejoin:miter;" x="396.196383" xlink:href="#m0400aa79dd" y="163.759886"/>
    </g>
   </g>
   <g id="line2d_52">
    <g clip-path="url(#pd3a6810335)">
     <use style="fill:#4c72b0;stroke:#4c72b0;stroke-linejoin:miter;" x="627.132979" xlink:href="#m658c3074fa" y="219.090097"/>
    </g>
   </g>
   <g id="line2d_53">
    <g clip-path="url(#pd3a6810335)">
     <use style="fill:#55a868;stroke:#55a868;stroke-linejoin:miter;" x="643.819149" xlink:href="#mf8c0823221" y="230.142006"/>
    </g>
   </g>
   <g id="line2d_54">
    <g clip-path="url(#pd3a6810335)">
     <use style="fill:#c44e52;stroke:#c44e52;stroke-linejoin:miter;" x="660.505319" xlink:href="#m0400aa79dd" y="224.045437"/>
    </g>
   </g>
   <g id="line2d_55">
    <defs>
     <path d="M -3 3 
L 3 3 
L 3 -3 
L -3 -3 
z
" id="mb2cbedd6f5" style="stroke:#000000;stroke-linejoin:miter;"/>
    </defs>
    <g clip-path="url(#pd3a6810335)">
     <use style="stroke:#000000;stroke-linejoin:miter;" x="81.828936" xlink:href="#mb2cbedd6f5" y="309.187184"/>
    </g>
   </g>
   <g id="patch_3">
    <path d="M 68.48 283.96 
L 68.48 24.12 
" style="fill:none;stroke:#000000;stroke-linecap:square;stroke-linejoin:miter;stroke-width:0.8;"/>
   </g>
   <g id="patch_4">
    <path d="M 68.48 283.96 
L 695.88 283.96 
" style="fill:none;stroke:#000000;stroke-linecap:square;stroke-linejoin:miter;stroke-width:0.8;"/>
   </g>
   <g id="text_12">
    <!-- 10 -->
    <g style="fill:#4c72b0;" transform="translate(97.981149 58.605734)scale(0.15 -0.15)">
     <use xlink:href="#ArialMT-31"/>
     <use x="55.615234" xlink:href="#ArialMT-30"/>
    </g>
   </g>
   <g id="text_13">
    <!-- 14 -->
    <g style="fill:#55a868;" transform="translate(114.667319 63.770355)scale(0.15 -0.15)">
     <use xlink:href="#ArialMT-31"/>
     <use x="55.615234" xlink:href="#ArialMT-34"/>
    </g>
   </g>
   <g id="text_14">
    <!-- 18 -->
    <defs>
     <path d="M 17.671875 38.8125 
Q 12.203125 40.828125 9.5625 44.53125 
Q 6.9375 48.25 6.9375 53.421875 
Q 6.9375 61.234375 12.546875 66.546875 
Q 18.171875 71.875 27.484375 71.875 
Q 36.859375 71.875 42.578125 66.421875 
Q 48.296875 60.984375 48.296875 53.171875 
Q 48.296875 48.1875 45.671875 44.5 
Q 43.0625 40.828125 37.75 38.8125 
Q 44.34375 36.671875 47.78125 31.875 
Q 51.21875 27.09375 51.21875 20.453125 
Q 51.21875 11.28125 44.71875 5.03125 
Q 38.234375 -1.21875 27.640625 -1.21875 
Q 17.046875 -1.21875 10.546875 5.046875 
Q 4.046875 11.328125 4.046875 20.703125 
Q 4.046875 27.6875 7.59375 32.390625 
Q 11.140625 37.109375 17.671875 38.8125 
M 15.921875 53.71875 
Q 15.921875 48.640625 19.1875 45.40625 
Q 22.46875 42.1875 27.6875 42.1875 
Q 32.765625 42.1875 36.015625 45.375 
Q 39.265625 48.578125 39.265625 53.21875 
Q 39.265625 58.0625 35.90625 61.359375 
Q 32.5625 64.65625 27.59375 64.65625 
Q 22.5625 64.65625 19.234375 61.421875 
Q 15.921875 58.203125 15.921875 53.71875 
M 13.09375 20.65625 
Q 13.09375 16.890625 14.875 13.375 
Q 16.65625 9.859375 20.171875 7.921875 
Q 23.6875 6 27.734375 6 
Q 34.03125 6 38.125 10.046875 
Q 42.234375 14.109375 42.234375 20.359375 
Q 42.234375 26.703125 38.015625 30.859375 
Q 33.796875 35.015625 27.4375 35.015625 
Q 21.234375 35.015625 17.15625 30.90625 
Q 13.09375 26.8125 13.09375 20.65625 
" id="ArialMT-38"/>
    </defs>
    <g style="fill:#c44e52;" transform="translate(131.353489 43.841456)scale(0.15 -0.15)">
     <use xlink:href="#ArialMT-31"/>
     <use x="55.615234" xlink:href="#ArialMT-38"/>
    </g>
   </g>
   <g id="text_15">
    <!-- Video Quality -->
    <defs>
     <path d="M 40.578125 0 
L 40.578125 7.625 
Q 34.515625 -1.171875 24.125 -1.171875 
Q 19.53125 -1.171875 15.546875 0.578125 
Q 11.578125 2.34375 9.640625 5 
Q 7.71875 7.671875 6.9375 11.53125 
Q 6.390625 14.109375 6.390625 19.734375 
L 6.390625 51.859375 
L 15.1875 51.859375 
L 15.1875 23.09375 
Q 15.1875 16.21875 15.71875 13.8125 
Q 16.546875 10.359375 19.234375 8.375 
Q 21.921875 6.390625 25.875 6.390625 
Q 29.828125 6.390625 33.296875 8.421875 
Q 36.765625 10.453125 38.203125 13.9375 
Q 39.65625 17.4375 39.65625 24.078125 
L 39.65625 51.859375 
L 48.4375 51.859375 
L 48.4375 0 
z
" id="ArialMT-75"/>
     <path d="M 25.78125 7.859375 
L 27.046875 0.09375 
Q 23.34375 -0.6875 20.40625 -0.6875 
Q 15.625 -0.6875 12.984375 0.828125 
Q 10.359375 2.34375 9.28125 4.8125 
Q 8.203125 7.28125 8.203125 15.1875 
L 8.203125 45.015625 
L 1.765625 45.015625 
L 1.765625 51.859375 
L 8.203125 51.859375 
L 8.203125 64.703125 
L 16.9375 69.96875 
L 16.9375 51.859375 
L 25.78125 51.859375 
L 25.78125 45.015625 
L 16.9375 45.015625 
L 16.9375 14.703125 
Q 16.9375 10.9375 17.40625 9.859375 
Q 17.875 8.796875 18.921875 8.15625 
Q 19.96875 7.515625 21.921875 7.515625 
Q 23.390625 7.515625 25.78125 7.859375 
" id="ArialMT-74"/>
    </defs>
    <g transform="translate(83.945135 174.357074)scale(0.15 -0.15)">
     <use xlink:href="#ArialMT-56"/>
     <use x="66.683594" xlink:href="#ArialMT-69"/>
     <use x="88.900391" xlink:href="#ArialMT-64"/>
     <use x="144.515625" xlink:href="#ArialMT-65"/>
     <use x="200.130859" xlink:href="#ArialMT-6f"/>
     <use x="255.746094" xlink:href="#ArialMT-20"/>
     <use x="283.529297" xlink:href="#ArialMT-51"/>
     <use x="361.3125" xlink:href="#ArialMT-75"/>
     <use x="416.927734" xlink:href="#ArialMT-61"/>
     <use x="472.542969" xlink:href="#ArialMT-6c"/>
     <use x="494.759766" xlink:href="#ArialMT-69"/>
     <use x="516.976562" xlink:href="#ArialMT-74"/>
     <use x="544.759766" xlink:href="#ArialMT-79"/>
    </g>
    <!-- (SSIM dB) -->
    <defs>
     <path d="M 9.328125 0 
L 9.328125 71.578125 
L 18.796875 71.578125 
L 18.796875 0 
z
" id="ArialMT-49"/>
     <path d="M 7.421875 0 
L 7.421875 71.578125 
L 21.6875 71.578125 
L 38.625 20.90625 
Q 40.96875 13.8125 42.046875 10.296875 
Q 43.265625 14.203125 45.84375 21.78125 
L 62.984375 71.578125 
L 75.734375 71.578125 
L 75.734375 0 
L 66.609375 0 
L 66.609375 59.90625 
L 45.796875 0 
L 37.25 0 
L 16.546875 60.9375 
L 16.546875 0 
z
" id="ArialMT-4d"/>
     <path d="M 7.328125 0 
L 7.328125 71.578125 
L 34.1875 71.578125 
Q 42.390625 71.578125 47.34375 69.40625 
Q 52.296875 67.234375 55.09375 62.71875 
Q 57.90625 58.203125 57.90625 53.265625 
Q 57.90625 48.6875 55.421875 44.625 
Q 52.9375 40.578125 47.90625 38.09375 
Q 54.390625 36.1875 57.875 31.59375 
Q 61.375 27 61.375 20.75 
Q 61.375 15.71875 59.25 11.390625 
Q 57.125 7.078125 54 4.734375 
Q 50.875 2.390625 46.15625 1.1875 
Q 41.453125 0 34.625 0 
z
M 16.796875 41.5 
L 32.28125 41.5 
Q 38.578125 41.5 41.3125 42.328125 
Q 44.921875 43.40625 46.75 45.890625 
Q 48.578125 48.390625 48.578125 52.15625 
Q 48.578125 55.71875 46.875 58.421875 
Q 45.171875 61.140625 41.984375 62.140625 
Q 38.8125 63.140625 31.109375 63.140625 
L 16.796875 63.140625 
z
M 16.796875 8.453125 
L 34.625 8.453125 
Q 39.203125 8.453125 41.0625 8.796875 
Q 44.34375 9.375 46.53125 10.734375 
Q 48.734375 12.109375 50.140625 14.71875 
Q 51.5625 17.328125 51.5625 20.75 
Q 51.5625 24.75 49.515625 27.703125 
Q 47.46875 30.671875 43.828125 31.859375 
Q 40.1875 33.0625 33.34375 33.0625 
L 16.796875 33.0625 
z
" id="ArialMT-42"/>
    </defs>
    <g transform="translate(93.962322 190.617542)scale(0.15 -0.15)">
     <use xlink:href="#ArialMT-28"/>
     <use x="33.300781" xlink:href="#ArialMT-53"/>
     <use x="100" xlink:href="#ArialMT-53"/>
     <use x="166.699219" xlink:href="#ArialMT-49"/>
     <use x="194.482422" xlink:href="#ArialMT-4d"/>
     <use x="277.783203" xlink:href="#ArialMT-20"/>
     <use x="305.566406" xlink:href="#ArialMT-64"/>
     <use x="361.181641" xlink:href="#ArialMT-42"/>
     <use x="427.880859" xlink:href="#ArialMT-29"/>
    </g>
   </g>
   <g id="legend_1">
    <g id="line2d_56">
     <path d="M 429.5675 49.435625 
L 469.5675 49.435625 
" style="fill:none;stroke:#000000;stroke-linecap:square;stroke-width:1.5;"/>
    </g>
    <g id="line2d_57"/>
    <g id="text_16">
     <!-- Video call QoE model -->
     <g transform="translate(485.5675 56.435625)scale(0.2 -0.2)">
      <use xlink:href="#ArialMT-56"/>
      <use x="66.683594" xlink:href="#ArialMT-69"/>
      <use x="88.900391" xlink:href="#ArialMT-64"/>
      <use x="144.515625" xlink:href="#ArialMT-65"/>
      <use x="200.130859" xlink:href="#ArialMT-6f"/>
      <use x="255.746094" xlink:href="#ArialMT-20"/>
      <use x="283.529297" xlink:href="#ArialMT-63"/>
      <use x="333.529297" xlink:href="#ArialMT-61"/>
      <use x="389.144531" xlink:href="#ArialMT-6c"/>
      <use x="411.361328" xlink:href="#ArialMT-6c"/>
      <use x="433.578125" xlink:href="#ArialMT-20"/>
      <use x="461.361328" xlink:href="#ArialMT-51"/>
      <use x="539.144531" xlink:href="#ArialMT-6f"/>
      <use x="594.759766" xlink:href="#ArialMT-45"/>
      <use x="661.458984" xlink:href="#ArialMT-20"/>
      <use x="689.242188" xlink:href="#ArialMT-6d"/>
      <use x="772.542969" xlink:href="#ArialMT-6f"/>
      <use x="828.158203" xlink:href="#ArialMT-64"/>
      <use x="883.773438" xlink:href="#ArialMT-65"/>
      <use x="939.388672" xlink:href="#ArialMT-6c"/>
     </g>
    </g>
    <g id="LineCollection_14">
     <path d="M 449.5675 87.72625 
L 449.5675 67.72625 
" style="fill:none;stroke:#000000;stroke-width:3;"/>
    </g>
    <g id="line2d_58">
     <g>
      <use style="stroke:#000000;stroke-width:2;" x="449.5675" xlink:href="#m208c6b7a14" y="87.72625"/>
     </g>
    </g>
    <g id="line2d_59">
     <g>
      <use style="stroke:#000000;stroke-width:2;" x="449.5675" xlink:href="#m208c6b7a14" y="67.72625"/>
     </g>
    </g>
    <g id="line2d_60"/>
    <g id="line2d_61">
     <g>
      <use style="stroke:#000000;stroke-linejoin:miter;" x="449.5675" xlink:href="#mb2cbedd6f5" y="77.72625"/>
     </g>
    </g>
    <g id="text_17">
     <!-- mean ± std -->
     <defs>
      <path d="M 6.59375 0 
L 6.59375 51.859375 
L 14.5 51.859375 
L 14.5 44.484375 
Q 20.21875 53.03125 31 53.03125 
Q 35.6875 53.03125 39.625 51.34375 
Q 43.5625 49.65625 45.515625 46.921875 
Q 47.46875 44.1875 48.25 40.4375 
Q 48.734375 37.984375 48.734375 31.890625 
L 48.734375 0 
L 39.9375 0 
L 39.9375 31.546875 
Q 39.9375 36.921875 38.90625 39.578125 
Q 37.890625 42.234375 35.28125 43.8125 
Q 32.671875 45.40625 29.15625 45.40625 
Q 23.53125 45.40625 19.453125 41.84375 
Q 15.375 38.28125 15.375 28.328125 
L 15.375 0 
z
" id="ArialMT-6e"/>
      <path d="M 23.296875 12.703125 
L 23.296875 32.375 
L 3.8125 32.375 
L 3.8125 40.53125 
L 23.296875 40.53125 
L 23.296875 60.015625 
L 31.59375 60.015625 
L 31.59375 40.53125 
L 51.078125 40.53125 
L 51.078125 32.375 
L 31.59375 32.375 
L 31.59375 12.703125 
z
M 51.078125 0 
L 3.8125 0 
L 3.8125 8.203125 
L 51.078125 8.203125 
z
" id="ArialMT-b1"/>
     </defs>
     <g transform="translate(485.5675 84.72625)scale(0.2 -0.2)">
      <use xlink:href="#ArialMT-6d"/>
      <use x="83.300781" xlink:href="#ArialMT-65"/>
      <use x="138.916016" xlink:href="#ArialMT-61"/>
      <use x="194.53125" xlink:href="#ArialMT-6e"/>
      <use x="250.146484" xlink:href="#ArialMT-20"/>
      <use x="277.929688" xlink:href="#ArialMT-b1"/>
      <use x="332.8125" xlink:href="#ArialMT-20"/>
      <use x="360.595703" xlink:href="#ArialMT-73"/>
      <use x="410.595703" xlink:href="#ArialMT-74"/>
      <use x="438.378906" xlink:href="#ArialMT-64"/>
     </g>
    </g>
    <g id="patch_5">
     <path d="M 429.5675 113.016875 
L 469.5675 113.016875 
L 469.5675 99.016875 
L 429.5675 99.016875 
z
" style="fill:#ffffff;stroke:#ffffff;stroke-linejoin:miter;"/>
    </g>
    <g id="text_18">
     <!-- R² = 0.571 -->
     <defs>
      <path d="M 7.859375 0 
L 7.859375 71.578125 
L 39.59375 71.578125 
Q 49.171875 71.578125 54.140625 69.640625 
Q 59.125 67.71875 62.109375 62.828125 
Q 65.09375 57.953125 65.09375 52.046875 
Q 65.09375 44.4375 60.15625 39.203125 
Q 55.21875 33.984375 44.921875 32.5625 
Q 48.6875 30.765625 50.640625 29 
Q 54.78125 25.203125 58.5 19.484375 
L 70.953125 0 
L 59.03125 0 
L 49.5625 14.890625 
Q 45.40625 21.34375 42.71875 24.75 
Q 40.046875 28.171875 37.921875 29.53125 
Q 35.796875 30.90625 33.59375 31.453125 
Q 31.984375 31.78125 28.328125 31.78125 
L 17.328125 31.78125 
L 17.328125 0 
z
M 17.328125 39.984375 
L 37.703125 39.984375 
Q 44.1875 39.984375 47.84375 41.328125 
Q 51.515625 42.671875 53.421875 45.625 
Q 55.328125 48.578125 55.328125 52.046875 
Q 55.328125 57.125 51.640625 60.390625 
Q 47.953125 63.671875 39.984375 63.671875 
L 17.328125 63.671875 
z
" id="ArialMT-52"/>
      <path d="M 1.21875 35.796875 
Q 1.515625 38.578125 3.515625 41.359375 
Q 6.59375 45.5625 13.625 50.65625 
Q 20.65625 55.765625 21.96875 57.234375 
Q 23.78125 59.234375 23.78125 61.328125 
Q 23.78125 63.671875 22.0625 65.1875 
Q 20.359375 66.703125 17.046875 66.703125 
Q 13.8125 66.703125 12.21875 65.546875 
Q 10.640625 64.40625 9.625 61.140625 
L 2.25 61.921875 
Q 3.65625 67.328125 7.140625 69.890625 
Q 10.640625 72.46875 17.1875 72.46875 
Q 24.5625 72.46875 28 69.578125 
Q 31.453125 66.703125 31.453125 62.546875 
Q 31.453125 58.453125 28.5625 54.78125 
Q 26.375 52.046875 18.5625 46.4375 
Q 14.5 43.453125 12.796875 41.703125 
L 31.640625 41.703125 
L 31.640625 35.796875 
z
" id="ArialMT-b2"/>
      <path d="M 52.828125 42.09375 
L 5.5625 42.09375 
L 5.5625 50.296875 
L 52.828125 50.296875 
z
M 52.828125 20.359375 
L 5.5625 20.359375 
L 5.5625 28.5625 
L 52.828125 28.5625 
z
" id="ArialMT-3d"/>
      <path d="M 9.078125 0 
L 9.078125 10.015625 
L 19.09375 10.015625 
L 19.09375 0 
z
" id="ArialMT-2e"/>
      <path d="M 4.734375 62.203125 
L 4.734375 70.65625 
L 51.078125 70.65625 
L 51.078125 63.8125 
Q 44.234375 56.546875 37.515625 44.484375 
Q 30.8125 32.421875 27.15625 19.671875 
Q 24.515625 10.6875 23.78125 0 
L 14.75 0 
Q 14.890625 8.453125 18.0625 20.40625 
Q 21.234375 32.375 27.171875 43.484375 
Q 33.109375 54.59375 39.796875 62.203125 
z
" id="ArialMT-37"/>
     </defs>
     <g transform="translate(485.5675 113.016875)scale(0.2 -0.2)">
      <use xlink:href="#ArialMT-52"/>
      <use x="72.216797" xlink:href="#ArialMT-b2"/>
      <use x="105.517578" xlink:href="#ArialMT-20"/>
      <use x="133.300781" xlink:href="#ArialMT-3d"/>
      <use x="191.699219" xlink:href="#ArialMT-20"/>
      <use x="219.482422" xlink:href="#ArialMT-30"/>
      <use x="275.097656" xlink:href="#ArialMT-2e"/>
      <use x="302.880859" xlink:href="#ArialMT-35"/>
      <use x="358.496094" xlink:href="#ArialMT-37"/>
      <use x="414.111328" xlink:href="#ArialMT-31"/>
     </g>
    </g>
   </g>
  </g>
 </g>
 <defs>
  <clipPath id="pd3a6810335">
   <rect height="259.84" width="627.4" x="68.48" y="24.12"/>
  </clipPath>
 </defs>
</svg>
